<svg width="1500" height="400" xmlns="http://www.w3.org/2000/svg">

 <g>
  <title>background</title>
  <rect fill="none" id="canvas_background" height="402" width="1502" y="-1" x="-1"/>
 </g>
 <g>
  <title>Layer 1</title>
  <path id="svg_6" d="m138.39295,163.16538l0.43641,-0.43641l0.61718,0l0.43641,0.43641l0,0.61718l-0.43641,0.43641l-0.61718,0l-0.43641,-0.43641l0,-0.61718z" stroke-width="0" stroke="#000" fill="#E6C36A"/>
  <path id="svg_9" d="m176.53463,-60.70962l0.43641,-0.43641l0.61718,0l0.43641,0.43641l0,0.61718l-0.43641,0.43641l-0.61718,0l-0.43641,-0.43641l0,-0.61718z" stroke-width="0" stroke="#000" fill="#E6C36A"/>
  <g id="svg_58">
   <ellipse fill="#999999" stroke="#000" stroke-width="0" cx="1255.067948" cy="220.433342" id="svg_18" rx="178.5" ry="53.5"/>
   <g id="svg_34">
    <path fill="#B8874D" stroke="#000" d="m1277.690038,208.760932l-42.32947,178.49272l-28.75167,0l-164.78527,-178.74635l235.86642,0.25363l-0.00001,0z" id="svg_11" stroke-width="0"/>
    <path fill="#B8874D" stroke="#000" d="m1463.415548,207.760892l-162.95297,178.49272l-32.59875,0l-45.16375,-178.17492l240.71547,-0.3178z" id="svg_13" stroke-width="0"/>
   </g>
   <g id="svg_33">
    <rect fill="#444444" stroke="#000" stroke-width="0" x="1486.818162" y="327.000002" width="15.2857" height="15" id="svg_25"/>
    <rect fill="#444444" stroke="#000" stroke-width="0" y="327.000002" width="15.2857" height="15" id="svg_26" x="1002.272708"/>
    <g id="svg_31">
     <g id="svg_20">
      <ellipse ry="30" rx="30" id="svg_12" cy="368.333322" cx="1050.606018" stroke-width="3" stroke="#999999" fill="#666666"/>
      <ellipse ry="30" rx="30" id="svg_14" cy="368.666672" cx="1145.606018" stroke-width="3" stroke="#999999" fill="#666666"/>
      <path transform="rotate(180, 1097.27, 356.667)" id="svg_19" d="m1017.272708,376.666662l30,-40l100.00001,0l29.99999,40l-160,0z" stroke-width="0" stroke="#444444" fill="#444444"/>
     </g>
     <g id="svg_24">
      <ellipse ry="30" rx="30" id="svg_21" cy="368.665272" cx="1360.606028" stroke-width="3" stroke="#999999" fill="#666666"/>
      <ellipse ry="30" rx="30" id="svg_22" cy="368.998612" cx="1455.606028" stroke-width="3" stroke="#999999" fill="#666666"/>
      <path transform="rotate(180, 1407.27, 356.999)" id="svg_23" d="m1327.272718,376.998602l30,-40l100.00001,0l29.99999,40l-160,0z" stroke-width="0" stroke="#444444" fill="#444444"/>
     </g>
     <rect stroke-width="0" id="svg_3" height="30" width="480" y="320.000002" x="1012.272708" stroke="#000" fill="#444444"/>
    </g>
   </g>
  </g>
  <g id="svg_82">
   <ellipse fill="#999999" stroke="#000" stroke-width="0" cx="252.79524" cy="220.43334" id="svg_59" rx="178.5" ry="53.5"/>
   <g id="svg_62">
    <path fill="#B8874D" stroke="#000" d="m275.41733,208.76093l-42.32947,178.49272l-28.75167,0l-164.78527,-178.74635l235.86642,0.25363l-0.00001,0z" id="svg_60" stroke-width="0"/>
    <path fill="#B8874D" stroke="#000" d="m461.14283,207.76089l-162.95297,178.49272l-32.59875,0l-45.16375,-178.17492l240.71547,-0.3178z" id="svg_61" stroke-width="0"/>
   </g>
   <g id="svg_81">
    <rect fill="#444444" stroke="#000" stroke-width="0" x="486.363636" y="327" width="15.2857" height="15" id="svg_69"/>
    <rect x="-1.818182" fill="#444444" stroke="#000" stroke-width="0" y="327" width="15.2857" height="15" id="svg_70"/>
    <g id="svg_80">
     <g id="svg_74">
      <ellipse ry="30" rx="30" id="svg_71" cy="368.33332" cx="48.33331" stroke-width="3" stroke="#999999" fill="#666666"/>
      <ellipse ry="30" rx="30" id="svg_72" cy="368.66667" cx="143.33331" stroke-width="3" stroke="#999999" fill="#666666"/>
      <path transform="rotate(180, 95, 356.667)" id="svg_73" d="m15,376.66666l30,-40l100.00001,0l29.99999,40l-160,0z" stroke-width="0" stroke="#444444" fill="#444444"/>
     </g>
     <g id="svg_78">
      <ellipse ry="30" rx="30" id="svg_75" cy="368.66527" cx="358.33332" stroke-width="3" stroke="#999999" fill="#666666"/>
      <ellipse ry="30" rx="30" id="svg_76" cy="368.99861" cx="453.33332" stroke-width="3" stroke="#999999" fill="#666666"/>
      <path transform="rotate(180, 405, 356.999)" id="svg_77" d="m325.00001,376.9986l30,-40l100.00001,0l29.99999,40l-160,0z" stroke-width="0" stroke="#444444" fill="#444444"/>
     </g>
     <rect stroke-width="0" id="svg_79" height="30" width="480" y="320" x="10" stroke="#000" fill="#444444"/>
    </g>
   </g>
  </g>
  <g id="svg_37">
   <ellipse fill="#999999" stroke="#000" stroke-width="0" cx="753.249786" cy="220.43334" id="svg_1" rx="178.5" ry="53.5"/>
   <g id="svg_5">
    <path fill="#B8874D" stroke="#000" d="m775.871876,208.76093l-42.32947,178.49272l-28.75167,0l-164.78527,-178.74635l235.86642,0.25363l-0.00001,0z" id="svg_2" stroke-width="0"/>
    <path fill="#B8874D" stroke="#000" d="m961.597386,207.76089l-162.95297,178.49272l-32.59875,0l-45.16375,-178.17492l240.71547,-0.3178z" id="svg_4" stroke-width="0"/>
   </g>
   <g id="svg_36">
    <rect fill="#444444" stroke="#000" stroke-width="0" x="988.636364" y="327" width="15.2857" height="15" id="svg_7"/>
    <rect fill="#444444" stroke="#000" stroke-width="0" y="327" width="15.2857" height="15" id="svg_8" x="500.454546"/>
    <g id="svg_35">
     <g id="svg_17">
      <ellipse ry="30" rx="30" id="svg_10" cy="368.33332" cx="548.787856" stroke-width="3" stroke="#999999" fill="#666666"/>
      <ellipse ry="30" rx="30" id="svg_15" cy="368.66667" cx="643.787856" stroke-width="3" stroke="#999999" fill="#666666"/>
      <path transform="rotate(180, 595.455, 356.667)" id="svg_16" d="m515.454546,376.66666l30,-40l100.00001,0l29.99999,40l-160,0z" stroke-width="0" stroke="#444444" fill="#444444"/>
     </g>
     <g id="svg_30">
      <ellipse ry="30" rx="30" id="svg_27" cy="368.66527" cx="858.787866" stroke-width="3" stroke="#999999" fill="#666666"/>
      <ellipse ry="30" rx="30" id="svg_28" cy="368.99861" cx="953.787866" stroke-width="3" stroke="#999999" fill="#666666"/>
      <path transform="rotate(180, 905.455, 356.999)" id="svg_29" d="m825.454556,376.9986l30,-40l100.00001,0l29.99999,40l-160,0z" stroke-width="0" stroke="#444444" fill="#444444"/>
     </g>
     <rect stroke-width="0" id="svg_32" height="30" width="480" y="320" x="510.454546" stroke="#000" fill="#444444"/>
    </g>
   </g>
  </g>
 </g>
</svg>